<?xml version="1.0" encoding="UTF-8"?>
<svg id="_レイヤー_1" data-name=" レイヤー 1" xmlns="http://www.w3.org/2000/svg" viewBox="0 0 283.46 333.3">
  <defs>
    <style>
      .cls-1 {
        fill: none;
        stroke: #d0d0d0;
        stroke-miterlimit: 10;
        stroke-width: 15px;
      }
    </style>
  </defs>
  <path class="cls-1" d="M8.33,332.63S-5.17,182.43,77.03,121.03c0,0-5.4-16.2-40.1-28,0,0-12.5-5.6-15.7-16.7,0,0-1.1-14.6.7-16.9,0,0,.9-1.8,3-2.1,0,0,39.1-7.4,41.8-8.1,0,0,2.5-1.2,3.3-3.3,0,0-.5-9.9,1.9-11.8,0,0,1.4-1.4,2.3-1.9,0,0,27.8-8.8,48.3-12.7h1.8s3.7-17.8,22.7-10.1c0,0,11.1,5.6,5.8,20.3,0,0,.2,2.5,0,4.8,0,0,46.4,29.8,51.6,84.9,0,0,79.4,32.1,70.9,213.5"/>
</svg>