<svg width="620" height="146" viewBox="0 0 620 146" fill="none" xmlns="http://www.w3.org/2000/svg">
<path d="M42.25 85.5V143H0.5V0.499987H42.75L80.5 58C86.1667 66.5 90.5 73.6667 93.5 79.5H94.25V55.5V0.499987H135.75V143H93.25L54.5 83L43.25 66H42.5L42.25 85.5ZM159.162 0.499987H262.912V30.5H204.162V56.5H253.662V83.5H204.162V112.5H262.662V143H159.162V0.499987ZM365.994 143H309.744L272.994 0.499987H320.994L339.994 105.25H341.244L361.494 0.499987H408.494L429.244 105.25H429.994L449.244 0.499987H495.244L458.494 143H402.494L385.494 52H383.994L365.994 143ZM552.242 39C552.242 42.5 553.992 45.25 557.492 47.25C561.159 49.25 566.826 51.4167 574.492 53.75C583.659 56.75 591.159 59.6667 596.992 62.5C602.992 65.3333 608.159 69.75 612.492 75.75C616.992 81.75 619.242 89.5833 619.242 99.25C619.242 130.25 599.076 145.75 558.742 145.75C552.076 145.75 543.909 145.167 534.242 144C524.742 142.833 516.076 141.333 508.242 139.5C508.576 136 509.242 130.917 510.242 124.25C511.409 117.417 512.492 112.333 513.492 109C519.326 109.833 528.076 110.833 539.742 112C551.576 113.167 560.492 113.75 566.492 113.75C569.992 113.75 572.076 113.5 572.742 113C573.742 112.333 574.492 111.25 574.992 109.75C575.659 108.083 575.992 106.667 575.992 105.5C575.992 102.167 574.409 99.6667 571.242 98C568.076 96.1667 562.659 94 554.992 91.5C545.826 88.6667 538.242 85.75 532.242 82.75C526.242 79.75 520.992 75.0833 516.492 68.75C511.992 62.4167 509.742 54.0833 509.742 43.75C509.742 36.4167 511.409 29.25 514.742 22.25C518.076 15.0833 521.492 10.25 524.992 7.75C527.659 5.91666 533.159 4.16666 541.492 2.49999C549.826 0.833326 557.659 -6.67572e-06 564.992 -6.67572e-06C583.659 -6.67572e-06 598.909 1.75 610.742 5.25C610.576 8.58333 609.992 13.1667 608.992 19C608.159 24.8333 607.242 30.1667 606.242 35L600.492 34.75C578.826 33.25 564.992 32.5 558.992 32.5C556.492 32.5 555.076 32.5833 554.742 32.75C554.076 33.0833 553.492 33.8333 552.992 35C552.492 36.1667 552.242 37.5 552.242 39Z" fill="#FFE2BC"/>
</svg>
