<svg width="310" height="377" viewBox="0 0 310 377" fill="none" xmlns="http://www.w3.org/2000/svg">
<path d="M0.956301 377C0.956301 377 -14.6542 202.931 80.2666 131.727C80.2666 131.727 74.0824 112.976 34.0234 99.2893C34.0234 99.2893 19.5897 92.7531 15.9207 79.8891C15.9207 79.8891 14.6977 62.9342 16.7284 60.2803C16.7284 60.2803 17.7437 58.2406 20.1897 57.835C20.1897 57.835 65.3368 49.259 68.3827 48.4362C68.3827 48.4362 71.2326 47.0107 72.2479 44.5538C72.2479 44.5538 71.6364 33.1153 74.4862 30.867C74.4862 30.867 76.113 29.233 77.1283 28.6187C77.1283 28.6187 109.261 18.4087 132.844 13.9121H134.875C134.875 13.9121 139.144 -6.71656 161.1 2.26503C161.1 2.26503 173.907 8.8013 167.815 25.7562C167.815 25.7562 168.022 28.6187 167.815 31.2727C167.815 31.2727 221.361 65.8547 227.407 129.63C227.407 129.63 319.063 166.877 309.267 377H0.956301Z" fill="#FFEED9"/>
</svg>
